<mxfile host="app.diagrams.net" agent="Mozilla/5.0 (Windows NT 10.0; Win64; x64) AppleWebKit/537.36 (KHTML, like Gecko) Chrome/131.0.0.0 Safari/537.36" version="25.0.3" pages="2">
  <diagram name="Caso-de-uso" id="RAfgA8RTvtt0lht7D1WV">
    <mxGraphModel dx="2150" dy="1912" grid="1" gridSize="10" guides="1" tooltips="1" connect="1" arrows="1" fold="1" page="1" pageScale="1" pageWidth="827" pageHeight="1169" math="0" shadow="0">
      <root>
        <mxCell id="0" />
        <mxCell id="1" parent="0" />
        <mxCell id="-1MS0kAReskjpL7NMIqj-1" value="" style="whiteSpace=wrap;html=1;aspect=fixed;" vertex="1" parent="1">
          <mxGeometry x="-440" y="-20" width="1430" height="1430" as="geometry" />
        </mxCell>
        <mxCell id="-1MS0kAReskjpL7NMIqj-2" value="Sistema de Gestão de Despesas" style="text;html=1;align=center;verticalAlign=middle;whiteSpace=wrap;rounded=0;fontSize=23;fontStyle=1" vertex="1" parent="1">
          <mxGeometry x="510" width="470" height="30" as="geometry" />
        </mxCell>
        <mxCell id="-1MS0kAReskjpL7NMIqj-38" style="rounded=0;orthogonalLoop=1;jettySize=auto;html=1;" edge="1" parent="1" source="-1MS0kAReskjpL7NMIqj-3" target="-1MS0kAReskjpL7NMIqj-27">
          <mxGeometry relative="1" as="geometry" />
        </mxCell>
        <mxCell id="-1MS0kAReskjpL7NMIqj-39" style="rounded=0;orthogonalLoop=1;jettySize=auto;html=1;entryX=0;entryY=0.5;entryDx=0;entryDy=0;" edge="1" parent="1" source="-1MS0kAReskjpL7NMIqj-3" target="-1MS0kAReskjpL7NMIqj-29">
          <mxGeometry relative="1" as="geometry" />
        </mxCell>
        <mxCell id="-1MS0kAReskjpL7NMIqj-40" style="rounded=0;orthogonalLoop=1;jettySize=auto;html=1;entryX=0;entryY=0.5;entryDx=0;entryDy=0;" edge="1" parent="1" source="-1MS0kAReskjpL7NMIqj-3" target="-1MS0kAReskjpL7NMIqj-18">
          <mxGeometry relative="1" as="geometry" />
        </mxCell>
        <mxCell id="-1MS0kAReskjpL7NMIqj-41" style="rounded=0;orthogonalLoop=1;jettySize=auto;html=1;entryX=0;entryY=0.5;entryDx=0;entryDy=0;" edge="1" parent="1" source="-1MS0kAReskjpL7NMIqj-3" target="-1MS0kAReskjpL7NMIqj-19">
          <mxGeometry relative="1" as="geometry" />
        </mxCell>
        <mxCell id="-1MS0kAReskjpL7NMIqj-42" style="rounded=0;orthogonalLoop=1;jettySize=auto;html=1;entryX=0;entryY=0.5;entryDx=0;entryDy=0;" edge="1" parent="1" source="-1MS0kAReskjpL7NMIqj-3" target="-1MS0kAReskjpL7NMIqj-20">
          <mxGeometry relative="1" as="geometry" />
        </mxCell>
        <mxCell id="-1MS0kAReskjpL7NMIqj-43" style="rounded=0;orthogonalLoop=1;jettySize=auto;html=1;entryX=0;entryY=0.5;entryDx=0;entryDy=0;" edge="1" parent="1" source="-1MS0kAReskjpL7NMIqj-3" target="-1MS0kAReskjpL7NMIqj-21">
          <mxGeometry relative="1" as="geometry" />
        </mxCell>
        <mxCell id="-1MS0kAReskjpL7NMIqj-44" style="rounded=0;orthogonalLoop=1;jettySize=auto;html=1;entryX=0;entryY=0.5;entryDx=0;entryDy=0;" edge="1" parent="1" source="-1MS0kAReskjpL7NMIqj-3" target="-1MS0kAReskjpL7NMIqj-22">
          <mxGeometry relative="1" as="geometry" />
        </mxCell>
        <mxCell id="-1MS0kAReskjpL7NMIqj-45" style="rounded=0;orthogonalLoop=1;jettySize=auto;html=1;entryX=0;entryY=0.5;entryDx=0;entryDy=0;" edge="1" parent="1" source="-1MS0kAReskjpL7NMIqj-3" target="-1MS0kAReskjpL7NMIqj-23">
          <mxGeometry relative="1" as="geometry" />
        </mxCell>
        <mxCell id="-1MS0kAReskjpL7NMIqj-46" style="rounded=0;orthogonalLoop=1;jettySize=auto;html=1;entryX=0;entryY=0.5;entryDx=0;entryDy=0;" edge="1" parent="1" source="-1MS0kAReskjpL7NMIqj-3" target="-1MS0kAReskjpL7NMIqj-24">
          <mxGeometry relative="1" as="geometry" />
        </mxCell>
        <mxCell id="-1MS0kAReskjpL7NMIqj-47" style="rounded=0;orthogonalLoop=1;jettySize=auto;html=1;entryX=0;entryY=0.5;entryDx=0;entryDy=0;" edge="1" parent="1" source="-1MS0kAReskjpL7NMIqj-3" target="-1MS0kAReskjpL7NMIqj-25">
          <mxGeometry relative="1" as="geometry" />
        </mxCell>
        <mxCell id="-1MS0kAReskjpL7NMIqj-48" style="rounded=0;orthogonalLoop=1;jettySize=auto;html=1;entryX=0;entryY=0.5;entryDx=0;entryDy=0;" edge="1" parent="1" source="-1MS0kAReskjpL7NMIqj-3" target="-1MS0kAReskjpL7NMIqj-26">
          <mxGeometry relative="1" as="geometry" />
        </mxCell>
        <mxCell id="-1MS0kAReskjpL7NMIqj-49" style="rounded=0;orthogonalLoop=1;jettySize=auto;html=1;entryX=0;entryY=0.5;entryDx=0;entryDy=0;" edge="1" parent="1" source="-1MS0kAReskjpL7NMIqj-3" target="-1MS0kAReskjpL7NMIqj-28">
          <mxGeometry relative="1" as="geometry" />
        </mxCell>
        <mxCell id="-1MS0kAReskjpL7NMIqj-3" value="Usuário" style="shape=umlActor;verticalLabelPosition=bottom;verticalAlign=top;html=1;outlineConnect=0;" vertex="1" parent="1">
          <mxGeometry x="-320" y="265" width="60" height="100" as="geometry" />
        </mxCell>
        <mxCell id="-1MS0kAReskjpL7NMIqj-50" style="rounded=0;orthogonalLoop=1;jettySize=auto;html=1;entryX=0;entryY=0.5;entryDx=0;entryDy=0;" edge="1" parent="1" source="-1MS0kAReskjpL7NMIqj-11" target="-1MS0kAReskjpL7NMIqj-30">
          <mxGeometry relative="1" as="geometry" />
        </mxCell>
        <mxCell id="-1MS0kAReskjpL7NMIqj-51" style="edgeStyle=orthogonalEdgeStyle;rounded=0;orthogonalLoop=1;jettySize=auto;html=1;" edge="1" parent="1" source="-1MS0kAReskjpL7NMIqj-11" target="-1MS0kAReskjpL7NMIqj-31">
          <mxGeometry relative="1" as="geometry" />
        </mxCell>
        <mxCell id="-1MS0kAReskjpL7NMIqj-11" value="Administrador" style="shape=umlActor;verticalLabelPosition=bottom;verticalAlign=top;html=1;outlineConnect=0;" vertex="1" parent="1">
          <mxGeometry x="-250" y="840" width="52.5" height="90" as="geometry" />
        </mxCell>
        <mxCell id="-1MS0kAReskjpL7NMIqj-53" style="rounded=0;orthogonalLoop=1;jettySize=auto;html=1;entryX=0;entryY=0.5;entryDx=0;entryDy=0;" edge="1" parent="1" source="-1MS0kAReskjpL7NMIqj-12" target="-1MS0kAReskjpL7NMIqj-32">
          <mxGeometry relative="1" as="geometry" />
        </mxCell>
        <mxCell id="-1MS0kAReskjpL7NMIqj-54" style="rounded=0;orthogonalLoop=1;jettySize=auto;html=1;entryX=0;entryY=0.5;entryDx=0;entryDy=0;" edge="1" parent="1" source="-1MS0kAReskjpL7NMIqj-12" target="-1MS0kAReskjpL7NMIqj-33">
          <mxGeometry relative="1" as="geometry" />
        </mxCell>
        <mxCell id="-1MS0kAReskjpL7NMIqj-55" style="rounded=0;orthogonalLoop=1;jettySize=auto;html=1;entryX=0;entryY=0.5;entryDx=0;entryDy=0;" edge="1" parent="1" source="-1MS0kAReskjpL7NMIqj-12" target="-1MS0kAReskjpL7NMIqj-34">
          <mxGeometry relative="1" as="geometry" />
        </mxCell>
        <mxCell id="-1MS0kAReskjpL7NMIqj-56" style="rounded=0;orthogonalLoop=1;jettySize=auto;html=1;entryX=0;entryY=0.5;entryDx=0;entryDy=0;" edge="1" parent="1" source="-1MS0kAReskjpL7NMIqj-12" target="-1MS0kAReskjpL7NMIqj-35">
          <mxGeometry relative="1" as="geometry" />
        </mxCell>
        <mxCell id="-1MS0kAReskjpL7NMIqj-57" style="rounded=0;orthogonalLoop=1;jettySize=auto;html=1;" edge="1" parent="1" source="-1MS0kAReskjpL7NMIqj-12" target="-1MS0kAReskjpL7NMIqj-36">
          <mxGeometry relative="1" as="geometry" />
        </mxCell>
        <mxCell id="-1MS0kAReskjpL7NMIqj-58" style="rounded=0;orthogonalLoop=1;jettySize=auto;html=1;entryX=0;entryY=0.5;entryDx=0;entryDy=0;" edge="1" parent="1" source="-1MS0kAReskjpL7NMIqj-12" target="-1MS0kAReskjpL7NMIqj-37">
          <mxGeometry relative="1" as="geometry" />
        </mxCell>
        <mxCell id="-1MS0kAReskjpL7NMIqj-12" value="Sistema&lt;div&gt;&lt;br&gt;&lt;/div&gt;" style="shape=umlActor;verticalLabelPosition=bottom;verticalAlign=top;html=1;outlineConnect=0;" vertex="1" parent="1">
          <mxGeometry x="-250" y="1150" width="57.5" height="100" as="geometry" />
        </mxCell>
        <mxCell id="-1MS0kAReskjpL7NMIqj-18" value="Logout         " style="ellipse;whiteSpace=wrap;html=1;" vertex="1" parent="1">
          <mxGeometry x="320" y="160" width="185" height="50" as="geometry" />
        </mxCell>
        <mxCell id="-1MS0kAReskjpL7NMIqj-19" value="Revogar Token" style="ellipse;whiteSpace=wrap;html=1;" vertex="1" parent="1">
          <mxGeometry x="325" y="215" width="185" height="50" as="geometry" />
        </mxCell>
        <mxCell id="-1MS0kAReskjpL7NMIqj-20" value="Criar Despesa" style="ellipse;whiteSpace=wrap;html=1;" vertex="1" parent="1">
          <mxGeometry x="325" y="270" width="185" height="50" as="geometry" />
        </mxCell>
        <mxCell id="-1MS0kAReskjpL7NMIqj-21" value="Editar Despesa" style="ellipse;whiteSpace=wrap;html=1;" vertex="1" parent="1">
          <mxGeometry x="325" y="330" width="185" height="50" as="geometry" />
        </mxCell>
        <mxCell id="-1MS0kAReskjpL7NMIqj-22" value="Remover Despesa" style="ellipse;whiteSpace=wrap;html=1;" vertex="1" parent="1">
          <mxGeometry x="325" y="390" width="185" height="50" as="geometry" />
        </mxCell>
        <mxCell id="-1MS0kAReskjpL7NMIqj-23" value="Compartilhar   " style="ellipse;whiteSpace=wrap;html=1;" vertex="1" parent="1">
          <mxGeometry x="325" y="450" width="185" height="50" as="geometry" />
        </mxCell>
        <mxCell id="-1MS0kAReskjpL7NMIqj-24" value="Consultar Despesa" style="ellipse;whiteSpace=wrap;html=1;" vertex="1" parent="1">
          <mxGeometry x="325" y="505" width="185" height="50" as="geometry" />
        </mxCell>
        <mxCell id="-1MS0kAReskjpL7NMIqj-25" value="Gerar Relatório" style="ellipse;whiteSpace=wrap;html=1;" vertex="1" parent="1">
          <mxGeometry x="325" y="560" width="185" height="50" as="geometry" />
        </mxCell>
        <mxCell id="-1MS0kAReskjpL7NMIqj-26" value="Exportar Dados" style="ellipse;whiteSpace=wrap;html=1;" vertex="1" parent="1">
          <mxGeometry x="332.5" y="620" width="185" height="50" as="geometry" />
        </mxCell>
        <mxCell id="-1MS0kAReskjpL7NMIqj-27" value="Autenticar     " style="ellipse;whiteSpace=wrap;html=1;" vertex="1" parent="1">
          <mxGeometry x="320" y="40" width="185" height="50" as="geometry" />
        </mxCell>
        <mxCell id="-1MS0kAReskjpL7NMIqj-28" value="Importar Dados" style="ellipse;whiteSpace=wrap;html=1;" vertex="1" parent="1">
          <mxGeometry x="332.5" y="680" width="185" height="50" as="geometry" />
        </mxCell>
        <mxCell id="-1MS0kAReskjpL7NMIqj-29" value="Renovar Token" style="ellipse;whiteSpace=wrap;html=1;" vertex="1" parent="1">
          <mxGeometry x="320" y="100" width="185" height="50" as="geometry" />
        </mxCell>
        <mxCell id="-1MS0kAReskjpL7NMIqj-30" value="Consultar Histórico" style="ellipse;whiteSpace=wrap;html=1;" vertex="1" parent="1">
          <mxGeometry x="332.5" y="800" width="185" height="50" as="geometry" />
        </mxCell>
        <mxCell id="-1MS0kAReskjpL7NMIqj-31" value="Gerenciar Permissões" style="ellipse;whiteSpace=wrap;html=1;" vertex="1" parent="1">
          <mxGeometry x="332.5" y="860" width="185" height="50" as="geometry" />
        </mxCell>
        <mxCell id="-1MS0kAReskjpL7NMIqj-32" value="Validar Dados Importados" style="ellipse;whiteSpace=wrap;html=1;" vertex="1" parent="1">
          <mxGeometry x="325" y="1020" width="185" height="50" as="geometry" />
        </mxCell>
        <mxCell id="-1MS0kAReskjpL7NMIqj-33" value="Recalcular Divisão" style="ellipse;whiteSpace=wrap;html=1;" vertex="1" parent="1">
          <mxGeometry x="325" y="1085" width="185" height="50" as="geometry" />
        </mxCell>
        <mxCell id="-1MS0kAReskjpL7NMIqj-34" value="Verificar Permissões" style="ellipse;whiteSpace=wrap;html=1;" vertex="1" parent="1">
          <mxGeometry x="325" y="1140" width="185" height="50" as="geometry" />
        </mxCell>
        <mxCell id="-1MS0kAReskjpL7NMIqj-35" value="Exportar Relatório" style="ellipse;whiteSpace=wrap;html=1;" vertex="1" parent="1">
          <mxGeometry x="325" y="1200" width="185" height="50" as="geometry" />
        </mxCell>
        <mxCell id="-1MS0kAReskjpL7NMIqj-36" value="Exportar Despesas" style="ellipse;whiteSpace=wrap;html=1;" vertex="1" parent="1">
          <mxGeometry x="325" y="1260" width="185" height="50" as="geometry" />
        </mxCell>
        <mxCell id="-1MS0kAReskjpL7NMIqj-37" value="Registrar Alterações" style="ellipse;whiteSpace=wrap;html=1;" vertex="1" parent="1">
          <mxGeometry x="325" y="1320" width="185" height="50" as="geometry" />
        </mxCell>
      </root>
    </mxGraphModel>
  </diagram>
  <diagram id="iUcgJPa5poj4HO2AeDdA" name="Diagrama-de-classes">
    <mxGraphModel dx="794" dy="446" grid="1" gridSize="10" guides="1" tooltips="1" connect="1" arrows="1" fold="1" page="1" pageScale="1" pageWidth="827" pageHeight="1169" math="0" shadow="0">
      <root>
        <mxCell id="0" />
        <mxCell id="1" parent="0" />
        <mxCell id="Kv-HmMWOmbDwMd1K7VoJ-1" value="&lt;p style=&quot;margin:0px;margin-top:4px;text-align:center;&quot;&gt;&lt;b&gt;Usuário&lt;/b&gt;&lt;/p&gt;&lt;hr size=&quot;1&quot; style=&quot;border-style:solid;&quot;&gt;&lt;p style=&quot;margin:0px;margin-left:4px;&quot;&gt;- id: int&lt;/p&gt;&lt;p style=&quot;margin:0px;margin-left:4px;&quot;&gt;- nome: string&lt;/p&gt;&lt;p style=&quot;margin:0px;margin-left:4px;&quot;&gt;- email: string&lt;/p&gt;&lt;p style=&quot;margin:0px;margin-left:4px;&quot;&gt;- senha: string&lt;/p&gt;&lt;p style=&quot;margin:0px;margin-left:4px;&quot;&gt;- token: string&lt;/p&gt;&lt;hr size=&quot;1&quot; style=&quot;border-style:solid;&quot;&gt;&lt;p style=&quot;margin:0px;margin-left:4px;&quot;&gt;+ autenticar(): boolean&lt;/p&gt;&lt;p style=&quot;margin:0px;margin-left:4px;&quot;&gt;+ renovarToken(): string&lt;/p&gt;&lt;p style=&quot;margin:0px;margin-left:4px;&quot;&gt;+ logout(): void&lt;/p&gt;&lt;p style=&quot;margin:0px;margin-left:4px;&quot;&gt;+ verificarPermissao(operacao: string): bool&lt;/p&gt;" style="verticalAlign=top;align=left;overflow=fill;html=1;whiteSpace=wrap;" vertex="1" parent="1">
          <mxGeometry x="100" y="140" width="250" height="200" as="geometry" />
        </mxCell>
        <mxCell id="Kv-HmMWOmbDwMd1K7VoJ-2" value="&lt;p style=&quot;margin:0px;margin-top:4px;text-align:center;&quot;&gt;&lt;b&gt;Despesas&lt;/b&gt;&lt;/p&gt;&lt;hr size=&quot;1&quot; style=&quot;border-style:solid;&quot;&gt;&lt;p style=&quot;margin:0px;margin-left:4px;&quot;&gt;- id: int&lt;/p&gt;&lt;p style=&quot;margin:0px;margin-left:4px;&quot;&gt;- descricao: string&lt;/p&gt;&lt;p style=&quot;margin:0px;margin-left:4px;&quot;&gt;- valorTotal: float&lt;/p&gt;&lt;p style=&quot;margin:0px;margin-left:4px;&quot;&gt;- categoria: string&lt;/p&gt;&lt;p style=&quot;margin:0px;margin-left:4px;&quot;&gt;- data: Datetime&lt;/p&gt;&lt;p style=&quot;margin:0px;margin-left:4px;&quot;&gt;- participantes: List&amp;lt;Usuario&amp;gt;&lt;/p&gt;&lt;hr size=&quot;1&quot; style=&quot;border-style:solid;&quot;&gt;&lt;p style=&quot;margin:0px;margin-left:4px;&quot;&gt;+ criar(): void&lt;/p&gt;&lt;p style=&quot;margin:0px;margin-left:4px;&quot;&gt;+ editar(): void&lt;/p&gt;&lt;p style=&quot;margin:0px;margin-left:4px;&quot;&gt;+ remover(): void&lt;/p&gt;&lt;p style=&quot;margin:0px;margin-left:4px;&quot;&gt;+ calcularDivisao(): void&lt;/p&gt;&lt;p style=&quot;margin:0px;margin-left:4px;&quot;&gt;+ consultar(): Despesa&lt;/p&gt;&lt;p style=&quot;margin:0px;margin-left:4px;&quot;&gt;+ compartilhar() : void&lt;/p&gt;&lt;p style=&quot;margin:0px;margin-left:4px;&quot;&gt;+ validarPorcentagens(): bool&lt;/p&gt;" style="verticalAlign=top;align=left;overflow=fill;html=1;whiteSpace=wrap;" vertex="1" parent="1">
          <mxGeometry x="530" y="140" width="200" height="250" as="geometry" />
        </mxCell>
        <mxCell id="Kv-HmMWOmbDwMd1K7VoJ-3" value="" style="line;strokeWidth=1;fillColor=none;align=left;verticalAlign=middle;spacingTop=-1;spacingLeft=3;spacingRight=3;rotatable=0;labelPosition=right;points=[];portConstraint=eastwest;strokeColor=inherit;" vertex="1" parent="1">
          <mxGeometry x="350" y="170" width="180" height="140" as="geometry" />
        </mxCell>
        <mxCell id="Kv-HmMWOmbDwMd1K7VoJ-4" value="1 .. *" style="text;html=1;align=center;verticalAlign=middle;resizable=0;points=[];autosize=1;strokeColor=none;fillColor=none;fontStyle=1" vertex="1" parent="1">
          <mxGeometry x="405" y="218" width="50" height="30" as="geometry" />
        </mxCell>
        <mxCell id="Kv-HmMWOmbDwMd1K7VoJ-6" value="&lt;p style=&quot;margin:0px;margin-top:4px;text-align:center;&quot;&gt;&lt;b&gt;RelatorioFinanceiro&lt;/b&gt;&lt;/p&gt;&lt;hr size=&quot;1&quot; style=&quot;border-style:solid;&quot;&gt;&lt;p style=&quot;margin:0px;margin-left:4px;&quot;&gt;- id: int&lt;/p&gt;&lt;p style=&quot;margin:0px;margin-left:4px;&quot;&gt;- categoria: string&lt;/p&gt;&lt;p style=&quot;margin:0px;margin-left:4px;&quot;&gt;- periodo: DatetimeRange&lt;/p&gt;&lt;p style=&quot;margin:0px;margin-left:4px;&quot;&gt;- despesas: List&amp;lt;Despesas&amp;gt;&lt;/p&gt;&lt;hr size=&quot;1&quot; style=&quot;border-style:solid;&quot;&gt;&lt;p style=&quot;margin:0px;margin-left:4px;&quot;&gt;+ gerar(): void&lt;/p&gt;&lt;p style=&quot;margin:0px;margin-left:4px;&quot;&gt;+ exportar(): string&lt;/p&gt;&lt;p style=&quot;margin:0px;margin-left:4px;&quot;&gt;+ filtrarPorPeriodo() : void&lt;/p&gt;&lt;p style=&quot;margin:0px;margin-left:4px;&quot;&gt;+ filtrarPorCategoria(): void&lt;/p&gt;" style="verticalAlign=top;align=left;overflow=fill;html=1;whiteSpace=wrap;" vertex="1" parent="1">
          <mxGeometry x="510" y="480" width="240" height="170" as="geometry" />
        </mxCell>
        <mxCell id="Kv-HmMWOmbDwMd1K7VoJ-9" value="" style="endArrow=none;html=1;rounded=0;entryX=0.5;entryY=1;entryDx=0;entryDy=0;exitX=0.5;exitY=0;exitDx=0;exitDy=0;" edge="1" parent="1" source="Kv-HmMWOmbDwMd1K7VoJ-6" target="Kv-HmMWOmbDwMd1K7VoJ-2">
          <mxGeometry width="50" height="50" relative="1" as="geometry">
            <mxPoint x="460" y="360" as="sourcePoint" />
            <mxPoint x="510" y="310" as="targetPoint" />
          </mxGeometry>
        </mxCell>
        <mxCell id="Kv-HmMWOmbDwMd1K7VoJ-10" value="&lt;b&gt;1..*&lt;/b&gt;" style="text;html=1;align=center;verticalAlign=middle;resizable=0;points=[];autosize=1;strokeColor=none;fillColor=none;" vertex="1" parent="1">
          <mxGeometry x="630" y="420" width="40" height="30" as="geometry" />
        </mxCell>
        <mxCell id="Kv-HmMWOmbDwMd1K7VoJ-11" value="&lt;p style=&quot;margin:0px;margin-top:4px;text-align:center;&quot;&gt;&lt;b&gt;HistoricoAlteracoes&lt;/b&gt;&lt;/p&gt;&lt;hr size=&quot;1&quot; style=&quot;border-style:solid;&quot;&gt;&lt;p style=&quot;margin:0px;margin-left:4px;&quot;&gt;- id : int&lt;/p&gt;&lt;p style=&quot;margin:0px;margin-left:4px;&quot;&gt;- dataAlteracao: Datetime&lt;/p&gt;&lt;p style=&quot;margin:0px;margin-left:4px;&quot;&gt;- usuarioResponsavel: Usuario&lt;/p&gt;&lt;p style=&quot;margin:0px;margin-left:4px;&quot;&gt;- descricaoAlteracao: string&lt;/p&gt;&lt;hr size=&quot;1&quot; style=&quot;border-style:solid;&quot;&gt;&lt;p style=&quot;margin:0px;margin-left:4px;&quot;&gt;+ registrar(): void&lt;/p&gt;&lt;p style=&quot;margin:0px;margin-left:4px;&quot;&gt;+ consultar(): List&amp;lt;HistoricoAlteracao&amp;gt;&lt;/p&gt;" style="verticalAlign=top;align=left;overflow=fill;html=1;whiteSpace=wrap;" vertex="1" parent="1">
          <mxGeometry x="100" y="495" width="270" height="140" as="geometry" />
        </mxCell>
        <mxCell id="Kv-HmMWOmbDwMd1K7VoJ-12" value="" style="line;strokeWidth=1;fillColor=none;align=left;verticalAlign=middle;spacingTop=-1;spacingLeft=3;spacingRight=3;rotatable=0;labelPosition=right;points=[];portConstraint=eastwest;strokeColor=inherit;" vertex="1" parent="1">
          <mxGeometry x="370" y="560" width="140" height="8" as="geometry" />
        </mxCell>
        <mxCell id="Kv-HmMWOmbDwMd1K7VoJ-13" value="1..*" style="text;html=1;align=center;verticalAlign=middle;resizable=0;points=[];autosize=1;strokeColor=none;fillColor=none;fontStyle=1" vertex="1" parent="1">
          <mxGeometry x="420" y="538" width="40" height="30" as="geometry" />
        </mxCell>
        <mxCell id="Kv-HmMWOmbDwMd1K7VoJ-15" value="&lt;p style=&quot;margin:0px;margin-top:4px;text-align:center;&quot;&gt;&lt;b&gt;Permissao&lt;/b&gt;&lt;/p&gt;&lt;hr size=&quot;1&quot; style=&quot;border-style:solid;&quot;&gt;&lt;p style=&quot;margin:0px;margin-left:4px;&quot;&gt;- id: int&lt;/p&gt;&lt;p style=&quot;margin:0px;margin-left:4px;&quot;&gt;- tipoPermissao: string&lt;/p&gt;&lt;p style=&quot;margin:0px;margin-left:4px;&quot;&gt;- usuario: Usuario&lt;/p&gt;&lt;hr size=&quot;1&quot; style=&quot;border-style:solid;&quot;&gt;&lt;p style=&quot;margin:0px;margin-left:4px;&quot;&gt;+ conceder(): void&lt;/p&gt;&lt;p style=&quot;margin:0px;margin-left:4px;&quot;&gt;+ revogar(): void&lt;/p&gt;&lt;p style=&quot;margin:0px;margin-left:4px;&quot;&gt;&lt;br&gt;&lt;/p&gt;" style="verticalAlign=top;align=left;overflow=fill;html=1;whiteSpace=wrap;" vertex="1" parent="1">
          <mxGeometry x="122.5" y="720" width="205" height="130" as="geometry" />
        </mxCell>
        <mxCell id="Kv-HmMWOmbDwMd1K7VoJ-16" value="" style="endArrow=none;html=1;rounded=0;entryX=0.454;entryY=1.012;entryDx=0;entryDy=0;entryPerimeter=0;exitX=0.5;exitY=0;exitDx=0;exitDy=0;" edge="1" parent="1" source="Kv-HmMWOmbDwMd1K7VoJ-15" target="Kv-HmMWOmbDwMd1K7VoJ-11">
          <mxGeometry width="50" height="50" relative="1" as="geometry">
            <mxPoint x="460" y="720" as="sourcePoint" />
            <mxPoint x="510" y="670" as="targetPoint" />
          </mxGeometry>
        </mxCell>
        <mxCell id="Kv-HmMWOmbDwMd1K7VoJ-17" value="1..*" style="text;html=1;align=center;verticalAlign=middle;resizable=0;points=[];autosize=1;strokeColor=none;fillColor=none;" vertex="1" parent="1">
          <mxGeometry x="215" y="668" width="40" height="30" as="geometry" />
        </mxCell>
        <mxCell id="Kv-HmMWOmbDwMd1K7VoJ-18" value="&lt;p style=&quot;margin:0px;margin-top:4px;text-align:center;&quot;&gt;&lt;b&gt;Token&lt;/b&gt;&lt;/p&gt;&lt;hr size=&quot;1&quot; style=&quot;border-style:solid;&quot;&gt;&lt;p style=&quot;margin:0px;margin-left:4px;&quot;&gt;- token: string&lt;/p&gt;&lt;p style=&quot;margin:0px;margin-left:4px;&quot;&gt;- expiracao: Datetime&lt;/p&gt;&lt;p style=&quot;margin:0px;margin-left:4px;&quot;&gt;- refreshToken: string&lt;/p&gt;&lt;p style=&quot;margin:0px;margin-left:4px;&quot;&gt;&lt;br&gt;&lt;/p&gt;&lt;hr size=&quot;1&quot; style=&quot;border-style:solid;&quot;&gt;&lt;p style=&quot;margin:0px;margin-left:4px;&quot;&gt;+ gerar(): string&lt;/p&gt;&lt;p style=&quot;margin:0px;margin-left:4px;&quot;&gt;+ renovar(): string&lt;/p&gt;&lt;p style=&quot;margin:0px;margin-left:4px;&quot;&gt;+ revogar(): void&lt;/p&gt;&lt;p style=&quot;margin:0px;margin-left:4px;&quot;&gt;&lt;br&gt;&lt;/p&gt;" style="verticalAlign=top;align=left;overflow=fill;html=1;whiteSpace=wrap;" vertex="1" parent="1">
          <mxGeometry x="510" y="720" width="190" height="160" as="geometry" />
        </mxCell>
        <mxCell id="Kv-HmMWOmbDwMd1K7VoJ-20" value="" style="endArrow=none;html=1;rounded=0;exitX=1;exitY=0.5;exitDx=0;exitDy=0;entryX=-0.011;entryY=0.417;entryDx=0;entryDy=0;entryPerimeter=0;" edge="1" parent="1" source="Kv-HmMWOmbDwMd1K7VoJ-15" target="Kv-HmMWOmbDwMd1K7VoJ-18">
          <mxGeometry width="50" height="50" relative="1" as="geometry">
            <mxPoint x="460" y="790" as="sourcePoint" />
            <mxPoint x="510" y="740" as="targetPoint" />
          </mxGeometry>
        </mxCell>
        <mxCell id="Kv-HmMWOmbDwMd1K7VoJ-21" value="1..*" style="text;html=1;align=center;verticalAlign=middle;resizable=0;points=[];autosize=1;strokeColor=none;fillColor=none;fontStyle=1" vertex="1" parent="1">
          <mxGeometry x="400" y="758" width="40" height="30" as="geometry" />
        </mxCell>
      </root>
    </mxGraphModel>
  </diagram>
</mxfile>
